<mxfile host="65bd71144e">
    <diagram id="feQLVRxRg6AdoV5jKobs" name="Page-1">
        <mxGraphModel dx="1308" dy="655" grid="1" gridSize="10" guides="1" tooltips="1" connect="1" arrows="1" fold="1" page="1" pageScale="1" pageWidth="827" pageHeight="1169" math="0" shadow="0">
            <root>
                <mxCell id="0"/>
                <mxCell id="1" parent="0"/>
                <mxCell id="33" value="" style="group" vertex="1" connectable="0" parent="1">
                    <mxGeometry x="100" y="40" width="641" height="550" as="geometry"/>
                </mxCell>
                <mxCell id="17" value="" style="shape=ext;double=1;rounded=1;whiteSpace=wrap;html=1;" vertex="1" parent="33">
                    <mxGeometry y="40" width="641" height="510" as="geometry"/>
                </mxCell>
                <mxCell id="18" value="" style="shape=ext;double=1;rounded=1;whiteSpace=wrap;html=1;" vertex="1" parent="33">
                    <mxGeometry x="41" y="105" width="250" height="395" as="geometry"/>
                </mxCell>
                <mxCell id="19" value="" style="shape=ext;double=1;rounded=1;whiteSpace=wrap;html=1;" vertex="1" parent="33">
                    <mxGeometry x="351" y="105" width="250" height="395" as="geometry"/>
                </mxCell>
                <mxCell id="20" value="" style="image;aspect=fixed;html=1;points=[];align=center;fontSize=12;image=img/lib/azure2/management_governance/Application_Insights.svg;" vertex="1" parent="33">
                    <mxGeometry x="71" y="120" width="44" height="63" as="geometry"/>
                </mxCell>
                <mxCell id="21" value="" style="image;aspect=fixed;html=1;points=[];align=center;fontSize=12;image=img/lib/azure2/storage/Storage_Accounts.svg;" vertex="1" parent="33">
                    <mxGeometry x="181" y="125.5" width="65" height="52" as="geometry"/>
                </mxCell>
                <mxCell id="22" value="" style="image;aspect=fixed;html=1;points=[];align=center;fontSize=12;image=img/lib/azure2/networking/DNS_Zones.svg;" vertex="1" parent="33">
                    <mxGeometry x="181" y="220" width="64" height="64" as="geometry"/>
                </mxCell>
                <mxCell id="23" value="" style="image;aspect=fixed;html=1;points=[];align=center;fontSize=12;image=img/lib/azure2/management_governance/Log_Analytics_Workspaces.svg;" vertex="1" parent="33">
                    <mxGeometry x="61" y="210" width="64" height="64" as="geometry"/>
                </mxCell>
                <mxCell id="24" value="" style="image;aspect=fixed;html=1;points=[];align=center;fontSize=12;image=img/lib/azure2/other/Container_App_Environments.svg;" vertex="1" parent="33">
                    <mxGeometry x="59" y="321" width="68" height="68" as="geometry"/>
                </mxCell>
                <mxCell id="25" value="" style="image;sketch=0;aspect=fixed;html=1;points=[];align=center;fontSize=12;image=img/lib/mscae/Managed_Identities.svg;" vertex="1" parent="33">
                    <mxGeometry x="194" y="330" width="38" height="50" as="geometry"/>
                </mxCell>
                <mxCell id="26" value="" style="image;aspect=fixed;html=1;points=[];align=center;fontSize=12;image=img/lib/azure2/security/Key_Vaults.svg;" vertex="1" parent="33">
                    <mxGeometry x="59" y="410" width="68" height="68" as="geometry"/>
                </mxCell>
                <mxCell id="27" value="c&lt;span style=&quot;background-color: light-dark(#ffffff, var(--ge-dark-color, #121212));&quot;&gt;ommon&lt;/span&gt;" style="image;sketch=0;aspect=fixed;html=1;points=[];align=center;fontSize=12;image=img/lib/mscae/ResourceGroup.svg;" vertex="1" parent="33">
                    <mxGeometry x="261" y="470" width="50" height="40" as="geometry"/>
                </mxCell>
                <mxCell id="28" value="" style="image;aspect=fixed;html=1;points=[];align=center;fontSize=12;image=img/lib/azure2/networking/NAT.svg;" vertex="1" parent="33">
                    <mxGeometry x="386" y="117.5" width="68" height="68" as="geometry"/>
                </mxCell>
                <mxCell id="29" value="" style="image;sketch=0;aspect=fixed;html=1;points=[];align=center;fontSize=12;image=img/lib/mscae/VPN_Gateway.svg;" vertex="1" parent="33">
                    <mxGeometry x="521" y="126.5" width="45" height="50" as="geometry"/>
                </mxCell>
                <mxCell id="30" value="network" style="image;sketch=0;aspect=fixed;html=1;points=[];align=center;fontSize=12;image=img/lib/mscae/ResourceGroup.svg;" vertex="1" parent="33">
                    <mxGeometry x="571" y="470" width="50" height="40" as="geometry"/>
                </mxCell>
                <mxCell id="31" value="&amp;lt;env&amp;gt;-x" style="image;aspect=fixed;html=1;points=[];align=center;fontSize=12;image=img/lib/azure2/general/Subscriptions.svg;" vertex="1" parent="33">
                    <mxGeometry x="17" width="44" height="71" as="geometry"/>
                </mxCell>
                <mxCell id="32" value="x-infra" style="dashed=0;outlineConnect=0;html=1;align=center;labelPosition=center;verticalLabelPosition=bottom;verticalAlign=top;shape=mxgraph.weblogos.github" vertex="1" parent="33">
                    <mxGeometry x="109" width="75" height="75" as="geometry"/>
                </mxCell>
            </root>
        </mxGraphModel>
    </diagram>
</mxfile>
